<?xml version="1.0" encoding="UTF-8" standalone="no"?>
<!DOCTYPE svg PUBLIC "-//W3C//DTD SVG 1.1//EN" "http://www.w3.org/Graphics/SVG/1.1/DTD/svg11.dtd">
<svg width="100%" height="100%" viewBox="0 0 1080 1080" version="1.1" xmlns="http://www.w3.org/2000/svg" xmlns:xlink="http://www.w3.org/1999/xlink" xml:space="preserve" xmlns:serif="http://www.serif.com/" style="fill-rule:evenodd;clip-rule:evenodd;stroke-linejoin:round;stroke-miterlimit:2;">
    <rect id="Artboard1" x="0" y="0" width="1080" height="1080" style="fill:none;"/>
    <clipPath id="_clip1">
        <rect id="Artboard11" serif:id="Artboard1" x="0" y="0" width="1080" height="1080"/>
    </clipPath>
    <g clip-path="url(#_clip1)">
        <g transform="matrix(1,0,0,1,94.0738,772.957)">
            <text x="354.916px" y="177.384px" style="font-family:'Arial-BoldMT', 'Arial', sans-serif;font-weight:700;font-size:7.49px;fill:white;">ES<tspan x="365.027px 369.662px 375.131px " y="177.384px 177.384px 177.384px ">TD.</tspan></text>
            <text x="357.344px" y="184.555px" style="font-family:'Arial-BoldMT', 'Arial', sans-serif;font-weight:700;font-size:6.871px;fill:white;">2<tspan x="361.533px 365.723px 369.912px " y="184.555px 184.555px 184.555px ">021</tspan></text>
        </g>
        <g transform="matrix(8.26362,0,0,9.00317,224.63,703.411)">
            <path d="M0,-11.889C-0.029,-11.884 -0.06,-11.877 -0.09,-11.872C-0.06,-11.877 -0.029,-11.883 0,-11.889M0.59,-11.964C0.55,-11.961 0.512,-11.955 0.472,-11.951C0.512,-11.955 0.55,-11.96 0.59,-11.964M-0.593,-11.761C-0.607,-11.758 -0.62,-11.753 -0.634,-11.75C-0.62,-11.753 -0.607,-11.758 -0.593,-11.761M39.664,3.016L39.667,3.014L39.663,3.016L39.664,3.016ZM67.037,4.955L55.517,9.611L41.656,15.21C41.651,15.212 41.646,15.214 41.64,15.216L41.566,15.246C41.529,15.261 41.491,15.271 41.454,15.285C41.345,15.326 41.233,15.366 41.122,15.4C41.059,15.42 40.995,15.434 40.931,15.45C40.835,15.475 40.74,15.5 40.644,15.519C40.568,15.533 40.493,15.544 40.419,15.555C40.331,15.569 40.244,15.581 40.156,15.59C40.075,15.598 39.995,15.602 39.914,15.606C39.831,15.61 39.748,15.614 39.664,15.614L39.662,15.614C39.521,15.614 39.38,15.607 39.238,15.595C39.216,15.593 39.194,15.592 39.173,15.59C39.05,15.579 38.927,15.559 38.803,15.538C38.763,15.532 38.723,15.526 38.684,15.519C38.666,15.515 38.648,15.509 38.632,15.506C38.539,15.487 38.445,15.464 38.354,15.439C38.304,15.427 38.255,15.415 38.205,15.4C38.093,15.366 37.982,15.326 37.873,15.285C37.836,15.271 37.797,15.261 37.761,15.246L-0.578,-0.243C-3.173,-1.292 -4.579,-4.222 -3.577,-6.837C-2.559,-9.5 0.442,-10.798 3.075,-9.735L37.149,4.032L37.72,4.263C38.967,4.766 40.36,4.766 41.606,4.263L72.41,-8.183L78.829,-10.777C79.593,-11.079 79.519,-11.972 78.876,-12.316L43.357,-28.331C41.009,-29.39 38.318,-29.39 35.969,-28.331L-1.176,-11.582C-3.016,-10.928 -4.526,-9.52 -5.29,-7.631C-6.729,-4.069 -5.002,0 -1.439,1.44L36.886,16.924C37.337,17.12 37.813,17.269 38.303,17.365C38.334,17.371 38.364,17.376 38.395,17.382C38.563,17.413 38.732,17.438 38.902,17.456C38.953,17.462 39.003,17.467 39.053,17.472C39.254,17.489 39.457,17.501 39.662,17.501L39.664,17.501C40.559,17.501 41.437,17.33 42.272,16.993L77.381,2.813C79.083,2.126 79.377,1.511 79.377,-0.025L67.037,4.955Z" style="fill:white;fill-rule:nonzero;"/>
        </g>
        <g transform="matrix(8.26362,0,0,9.00317,552.376,674.691)">
            <path d="M0,16.424C-0.543,16.424 -1.085,16.345 -1.623,16.186C-1.642,16.181 -1.659,16.175 -1.677,16.167L-38.632,1.213C-38.933,1.091 -39.078,0.748 -38.956,0.446C-38.834,0.145 -38.49,0 -38.189,0.122L-1.264,15.066C-0.415,15.31 0.413,15.309 1.269,15.065L36.924,0.689C37.225,0.566 37.568,0.713 37.689,1.014C37.812,1.316 37.665,1.658 37.363,1.78L1.681,16.168C1.663,16.175 1.645,16.182 1.627,16.186C1.086,16.345 0.542,16.424 0,16.424" style="fill:white;fill-rule:nonzero;"/>
        </g>
        <g transform="matrix(8.26362,0,0,9.00317,552.376,637.769)">
            <path d="M0,16.423C-0.543,16.423 -1.085,16.344 -1.623,16.185C-1.642,16.181 -1.659,16.174 -1.677,16.167L-38.632,1.212C-38.933,1.09 -39.078,0.748 -38.956,0.446C-38.834,0.144 -38.49,0 -38.189,0.121L-1.264,15.064C-0.414,15.309 0.414,15.31 1.269,15.064L36.924,0.688C37.225,0.565 37.568,0.712 37.689,1.013C37.812,1.315 37.665,1.658 37.363,1.779L1.681,16.167C1.663,16.174 1.645,16.181 1.627,16.186C1.086,16.344 0.543,16.423 0,16.423" style="fill:white;fill-rule:nonzero;"/>
        </g>
        <g transform="matrix(8.26362,0,0,9.00317,528.569,532.962)">
            <path d="M0,-28.266L-29.082,-14.987C-29.813,-14.652 -29.813,-13.613 -29.082,-13.279L0,0.001C0.878,0.401 1.888,0.401 2.767,0.001L31.849,-13.279C32.579,-13.613 32.579,-14.652 31.849,-14.987L2.767,-28.266C1.888,-28.667 0.878,-28.667 0,-28.266" style="fill:white;fill-rule:nonzero;"/>
        </g>
        <g transform="matrix(8.26362,0,0,9.00317,538.713,447.49)">
            <path d="M0,25.212C-12.79,25.212 -22.435,20.859 -22.435,15.088L-22.435,0L-1.956,9.352C-1.289,9.655 -0.578,9.811 0.155,9.811C0.89,9.811 1.601,9.655 2.268,9.352L22.435,0.142L22.435,15.088C22.435,20.859 12.79,25.212 0,25.212" style="fill:white;fill-rule:nonzero;"/>
        </g>
        <g transform="matrix(8.26362,0,0,9.00317,563.052,585.099)">
            <path d="M0,-4.45C-0.882,-4.048 -1.82,-3.843 -2.789,-3.843C-3.759,-3.843 -4.697,-4.048 -5.579,-4.45L-23.749,-12.746L-23.749,-0.197C-23.749,4.494 -14.435,8.296 -2.945,8.296C8.544,8.296 17.857,4.494 17.857,-0.197L17.857,-12.604L0,-4.45Z" style="fill:white;fill-rule:nonzero;"/>
        </g>
        <g transform="matrix(-6.31053,5.8127,5.33523,6.87528,232.097,241.765)">
            <path d="M1.43,-3.907C4.633,-3.907 7.23,-1.692 7.23,-1.692C7.23,-1.692 4.633,0.524 1.43,0.524C-1.774,0.525 -4.37,-1.692 -4.37,-1.692C-4.37,-1.692 -1.773,-3.907 1.43,-3.907" style="fill:white;fill-rule:nonzero;"/>
        </g>
        <g transform="matrix(-2.84893,-8.4512,-7.757,3.1039,286.92,936.725)">
            <path d="M-1.976,-2.892C-5.168,-3.783 -8.07,-2.724 -8.07,-2.696C-8.108,-2.687 -5.374,0.82 -1.976,1.503C1.386,2.2 3.76,0.214 3.764,0.242C3.733,0.243 1.193,-1.992 -1.976,-2.892" style="fill:white;fill-rule:nonzero;"/>
        </g>
        <g transform="matrix(7.33454,-4.14752,-3.80684,-7.99093,293.871,1017.34)">
            <path d="M-1.082,-0.382C2.503,-1.682 5.126,0.098 5.112,0.075C5.068,0.085 2.138,3.085 -1.082,4.444C-4.341,5.803 -7.208,4.927 -7.218,4.907C-7.268,4.922 -4.709,0.926 -1.082,-0.382" style="fill:white;fill-rule:nonzero;"/>
        </g>
        <g transform="matrix(-1.49582,-8.85444,-8.12711,1.62969,231.001,899.645)">
            <path d="M-1.929,-2.551C-5.031,-3.294 -7.847,-2.15 -7.846,-2.123C-7.886,-2.118 -5.242,1.149 -1.929,1.708C1.351,2.28 3.668,0.281 3.67,0.307C3.64,0.306 1.151,-1.802 -1.929,-2.551" style="fill:white;fill-rule:nonzero;"/>
        </g>
        <g transform="matrix(7.95704,-2.42959,-2.23002,-8.66914,219.107,982.469)">
            <path d="M-0.658,-0.123C2.819,-1.252 5.357,0.571 5.347,0.548C5.306,0.554 2.492,3.342 -0.658,4.554C-3.842,5.765 -6.649,4.824 -6.658,4.802C-6.704,4.813 -4.172,1.01 -0.658,-0.123" style="fill:white;fill-rule:nonzero;"/>
        </g>
        <g transform="matrix(-0.0595632,-9.00293,-8.26341,0.0648938,184.811,854.242)">
            <path d="M-1.839,-2.188C-4.886,-2.848 -7.647,-1.664 -7.647,-1.64C-7.686,-1.637 -5.099,1.474 -1.839,1.974C1.384,2.483 3.666,0.495 3.668,0.519C3.638,0.518 1.183,-1.524 -1.839,-2.188" style="fill:white;fill-rule:nonzero;"/>
        </g>
        <g transform="matrix(8.23756,-0.714526,-0.655833,-8.97477,153.217,933.094)">
            <path d="M-0.187,-0.013C3.204,-1.047 5.675,0.791 5.667,0.768C5.63,0.772 2.909,3.44 -0.187,4.573C-3.315,5.703 -6.076,4.728 -6.083,4.707C-6.126,4.716 -3.614,1.024 -0.187,-0.013" style="fill:white;fill-rule:nonzero;"/>
        </g>
        <g transform="matrix(1.39676,-8.87363,-8.14472,-1.52176,147.642,801.796)">
            <path d="M-1.775,-1.877C-4.781,-2.501 -7.504,-1.309 -7.504,-1.286C-7.543,-1.285 -4.994,1.739 -1.775,2.223C1.412,2.713 3.669,0.748 3.669,0.771C3.639,0.77 1.208,-1.25 -1.775,-1.877" style="fill:white;fill-rule:nonzero;"/>
        </g>
        <g transform="matrix(8.21914,0.932865,0.856237,-8.95471,98.4119,871.22)">
            <path d="M0.238,-0.011C3.57,-1.007 5.997,0.822 5.99,0.799C5.956,0.803 3.298,3.413 0.238,4.515C-2.853,5.612 -5.583,4.633 -5.589,4.613C-5.63,4.621 -3.128,0.987 0.238,-0.011" style="fill:white;fill-rule:nonzero;"/>
        </g>
        <g transform="matrix(2.81882,-8.46318,-7.76799,-3.07108,119.444,743.993)">
            <path d="M-1.706,-1.627C-4.68,-2.25 -7.372,-1.064 -7.372,-1.044C-7.411,-1.045 -4.893,1.945 -1.706,2.442C1.447,2.941 3.682,1.005 3.683,1.026C3.654,1.024 1.245,-1 -1.706,-1.627" style="fill:white;fill-rule:nonzero;"/>
        </g>
        <g transform="matrix(7.94504,2.47575,2.27239,-8.65608,55.8314,799.312)">
            <path d="M0.623,-0.103C3.921,-1.099 6.322,0.704 6.316,0.68C6.282,0.684 3.667,3.273 0.623,4.373C-2.447,5.47 -5.162,4.514 -5.168,4.492C-5.209,4.5 -2.711,0.892 0.623,-0.103" style="fill:white;fill-rule:nonzero;"/>
        </g>
        <g transform="matrix(4.15152,-7.78453,-7.14509,-4.52306,100.982,683.833)">
            <path d="M-1.519,-1.275C-4.463,-1.914 -7.125,-0.744 -7.126,-0.723C-7.165,-0.724 -4.677,2.264 -1.519,2.786C1.606,3.31 3.821,1.393 3.822,1.417C3.793,1.413 1.401,-0.633 -1.519,-1.275" style="fill:white;fill-rule:nonzero;"/>
        </g>
        <g transform="matrix(7.44119,3.91554,3.5939,-8.10713,25.671,719.732)">
            <path d="M1.054,-0.263C4.34,-1.27 6.729,0.498 6.725,0.476C6.692,0.479 4.093,3.057 1.054,4.172C-2.012,5.282 -4.722,4.356 -4.728,4.335C-4.766,4.341 -2.266,0.745 1.054,-0.263" style="fill:white;fill-rule:nonzero;"/>
        </g>
        <g transform="matrix(5.35611,-6.85599,-6.29282,-5.83545,91.3729,621.6)">
            <path d="M-1.306,-0.941C-4.223,-1.605 -6.859,-0.453 -6.86,-0.433C-6.898,-0.436 -4.441,2.574 -1.306,3.126C1.794,3.68 3.996,1.782 3.997,1.803C3.965,1.802 1.586,-0.273 -1.306,-0.941" style="fill:white;fill-rule:nonzero;"/>
        </g>
        <g transform="matrix(6.72997,5.22446,4.79531,-7.33226,8.48691,634.995)">
            <path d="M1.55,-0.439C4.836,-1.468 7.227,0.264 7.222,0.241C7.191,0.245 4.593,2.821 1.55,3.96C-1.518,5.097 -4.23,4.209 -4.236,4.188C-4.275,4.193 -1.77,0.589 1.55,-0.439" style="fill:white;fill-rule:nonzero;"/>
        </g>
        <g transform="matrix(6.40155,-5.69334,-5.22567,-6.97445,91.2886,559.98)">
            <path d="M-1.022,-0.456C-3.918,-1.153 -6.531,-0.022 -6.534,-0.001C-6.572,-0.005 -4.143,3.039 -1.022,3.627C2.066,4.217 4.26,2.337 4.26,2.359C4.228,2.356 1.848,0.245 -1.022,-0.456" style="fill:white;fill-rule:nonzero;"/>
        </g>
        <g transform="matrix(5.82246,6.38878,5.86399,-6.34353,5.85374,550.477)">
            <path d="M1.788,-0.449C5.083,-1.506 7.48,0.193 7.476,0.169C7.445,0.173 4.841,2.753 1.788,3.928C-1.288,5.1 -4.007,4.255 -4.013,4.233C-4.052,4.238 -1.542,0.605 1.788,-0.449" style="fill:white;fill-rule:nonzero;"/>
        </g>
        <g transform="matrix(7.25544,-4.3095,-3.9555,-7.90476,100.297,496.245)">
            <path d="M-0.905,-0.221C-3.791,-0.963 -6.393,0.141 -6.394,0.161C-6.434,0.156 -4.03,3.251 -0.905,3.889C2.185,4.527 4.385,2.666 4.382,2.688C4.35,2.685 1.951,0.525 -0.905,-0.221" style="fill:white;fill-rule:nonzero;"/>
        </g>
        <g transform="matrix(4.739,7.37558,6.76973,-5.16311,18.4472,465.019)">
            <path d="M2.011,-0.68C5.321,-1.779 7.73,-0.109 7.726,-0.134C7.695,-0.131 5.077,2.468 2.011,3.699C-1.08,4.925 -3.806,4.133 -3.813,4.11C-3.853,4.112 -1.334,0.415 2.011,-0.68" style="fill:white;fill-rule:nonzero;"/>
        </g>
        <g transform="matrix(7.88227,-2.70345,-2.48138,-8.58769,117.677,434.072)">
            <path d="M-0.618,-0.087C-3.506,-0.902 -6.107,0.156 -6.111,0.177C-6.152,0.17 -3.767,3.347 -0.618,4.063C2.497,4.779 4.716,2.954 4.712,2.976C4.676,2.973 2.24,0.731 -0.618,-0.087" style="fill:white;fill-rule:nonzero;"/>
        </g>
        <g transform="matrix(3.51456,8.14831,7.47899,-3.82909,46.1612,382.696)">
            <path d="M2.174,-0.987C5.506,-2.159 7.933,-0.524 7.928,-0.55C7.898,-0.548 5.26,2.1 2.174,3.422C-0.938,4.738 -3.679,4.02 -3.685,3.995C-3.726,3.997 -1.193,0.178 2.174,-0.987" style="fill:white;fill-rule:nonzero;"/>
        </g>
        <g transform="matrix(8.22261,-0.895848,-0.822261,-8.95848,144.412,374.136)">
            <path d="M-0.207,-0.014C-3.114,-0.945 -5.728,0.045 -5.733,0.065C-5.777,0.056 -3.404,3.363 -0.207,4.207C2.952,5.051 5.204,3.279 5.199,3.3C5.161,3.295 2.666,0.917 -0.207,-0.014" style="fill:white;fill-rule:nonzero;"/>
        </g>
        <g transform="matrix(2.19771,8.67893,7.96602,-2.3944,90.419,304.254)">
            <path d="M2.447,-1.592C5.816,-2.889 8.271,-1.301 8.267,-1.329C8.236,-1.329 5.57,1.417 2.447,2.886C-0.698,4.351 -3.473,3.741 -3.479,3.714C-3.519,3.711 -0.957,-0.305 2.447,-1.592" style="fill:white;fill-rule:nonzero;"/>
        </g>
        <g transform="matrix(8.20557,1.06526,0.977758,-8.93992,181.95,317.188)">
            <path d="M0.251,-0.003C-2.683,-1.108 -5.317,-0.215 -5.325,-0.195C-5.37,-0.207 -3.01,3.302 0.251,4.349C3.469,5.389 5.765,3.69 5.757,3.71C5.714,3.702 3.148,1.1 0.251,-0.003" style="fill:white;fill-rule:nonzero;"/>
        </g>
        <g transform="matrix(0.848292,8.9556,8.21997,-0.924209,148.472,236.343)">
            <path d="M2.518,-2.039C5.95,-3.534 8.452,-2.026 8.448,-2.056C8.418,-2.056 5.707,0.854 2.518,2.549C-0.694,4.236 -3.526,3.788 -3.531,3.757C-3.572,3.753 -0.949,-0.56 2.518,-2.039" style="fill:white;fill-rule:nonzero;"/>
        </g>
        <g transform="matrix(8.26362,0,0,9.00317,430.027,255.036)">
            <path d="M0,83.761L-0.035,83.098C-5.528,83.388 -10.962,82.573 -16.186,80.677C-21.276,78.828 -25.948,76.036 -30.073,72.379C-38.633,64.79 -43.938,54.219 -45.016,42.615C-45.896,33.113 -44.945,24.71 -42.188,17.641C-39.228,10.049 -34.243,4.209 -27.374,0.283L-27.704,-0.294C-34.708,3.711 -39.789,9.663 -42.807,17.4C-45.602,24.566 -46.566,33.071 -45.676,42.677C-44.584,54.45 -39.199,65.175 -30.514,72.876C-26.326,76.589 -21.582,79.424 -16.412,81.3C-11.104,83.228 -5.583,84.055 0,83.761" style="fill:white;fill-rule:nonzero;"/>
        </g>
        <g transform="matrix(-6.31053,-5.8127,-5.33523,6.87528,847.896,241.762)">
            <path d="M-1.431,-3.908C-4.633,-3.907 -7.23,-1.691 -7.23,-1.691C-7.23,-1.691 -4.634,0.524 -1.431,0.524C1.774,0.525 4.369,-1.693 4.369,-1.693C4.369,-1.693 1.773,-3.908 -1.431,-3.908" style="fill:white;fill-rule:nonzero;"/>
        </g>
        <g transform="matrix(-2.84954,8.45096,7.75677,3.10456,793.081,936.726)">
            <path d="M1.977,-2.892C5.169,-3.783 8.071,-2.724 8.07,-2.696C8.108,-2.687 5.374,0.821 1.977,1.502C-1.386,2.2 -3.76,0.214 -3.764,0.242C-3.733,0.243 -1.193,-1.992 1.977,-2.892" style="fill:white;fill-rule:nonzero;"/>
        </g>
        <g transform="matrix(7.33454,4.14752,3.80684,-7.99093,786.129,1017.35)">
            <path d="M1.081,-0.381C-2.503,-1.682 -5.126,0.098 -5.112,0.076C-5.068,0.085 -2.139,3.085 1.081,4.444C4.341,5.803 7.207,4.927 7.218,4.907C7.267,4.921 4.709,0.927 1.081,-0.381" style="fill:white;fill-rule:nonzero;"/>
        </g>
        <g transform="matrix(-1.49582,8.85444,8.12711,1.62969,848.999,899.645)">
            <path d="M1.929,-2.551C5.031,-3.294 7.847,-2.15 7.846,-2.123C7.886,-2.118 5.242,1.149 1.929,1.708C-1.351,2.28 -3.668,0.281 -3.67,0.307C-3.64,0.306 -1.151,-1.803 1.929,-2.551" style="fill:white;fill-rule:nonzero;"/>
        </g>
        <g transform="matrix(7.95704,2.42959,2.23002,-8.66914,860.893,982.469)">
            <path d="M0.658,-0.123C-2.819,-1.252 -5.357,0.571 -5.347,0.548C-5.306,0.554 -2.493,3.342 0.658,4.554C3.842,5.765 6.648,4.823 6.658,4.802C6.704,4.813 4.172,1.01 0.658,-0.123" style="fill:white;fill-rule:nonzero;"/>
        </g>
        <g transform="matrix(-0.0595632,9.00293,8.26341,0.0648938,895.185,854.247)">
            <path d="M1.839,-2.188C4.886,-2.848 7.646,-1.665 7.646,-1.64C7.685,-1.637 5.099,1.475 1.839,1.974C-1.385,2.482 -3.667,0.495 -3.669,0.52C-3.639,0.519 -1.184,-1.524 1.839,-2.188" style="fill:white;fill-rule:nonzero;"/>
        </g>
        <g transform="matrix(8.2377,0.712576,0.654043,-8.97492,926.787,933.095)">
            <path d="M0.186,-0.013C-3.205,-1.047 -5.676,0.792 -5.668,0.769C-5.63,0.773 -2.909,3.441 0.186,4.573C3.316,5.703 6.076,4.727 6.083,4.705C6.127,4.715 3.614,1.023 0.186,-0.013" style="fill:white;fill-rule:nonzero;"/>
        </g>
        <g transform="matrix(1.39642,8.87369,8.14478,-1.52139,932.354,801.792)">
            <path d="M1.775,-1.877C4.782,-2.502 7.505,-1.309 7.505,-1.285C7.543,-1.285 4.995,1.739 1.775,2.223C-1.412,2.713 -3.668,0.748 -3.668,0.771C-3.638,0.769 -1.208,-1.249 1.775,-1.877" style="fill:white;fill-rule:nonzero;"/>
        </g>
        <g transform="matrix(8.21933,-0.930897,-0.854431,-8.95491,981.576,871.222)">
            <path d="M-0.238,-0.011C-3.57,-1.008 -5.996,0.821 -5.989,0.798C-5.954,0.802 -3.297,3.412 -0.238,4.515C2.852,5.612 5.584,4.635 5.59,4.614C5.631,4.622 3.13,0.988 -0.238,-0.011" style="fill:white;fill-rule:nonzero;"/>
        </g>
        <g transform="matrix(2.81882,8.46318,7.76799,-3.07108,960.554,743.997)">
            <path d="M1.706,-1.627C4.68,-2.25 7.372,-1.065 7.372,-1.044C7.41,-1.046 4.893,1.945 1.706,2.442C-1.448,2.942 -3.683,1.004 -3.683,1.026C-3.654,1.025 -1.245,-1.001 1.706,-1.627" style="fill:white;fill-rule:nonzero;"/>
        </g>
        <g transform="matrix(7.94504,-2.47575,-2.27239,-8.65608,1024.17,799.31)">
            <path d="M-0.623,-0.103C-3.921,-1.099 -6.322,0.704 -6.316,0.68C-6.283,0.684 -3.667,3.273 -0.623,4.373C2.446,5.47 5.162,4.514 5.168,4.492C5.208,4.5 2.711,0.892 -0.623,-0.103" style="fill:white;fill-rule:nonzero;"/>
        </g>
        <g transform="matrix(4.1524,7.78397,7.14458,-4.52402,979.016,683.835)">
            <path d="M1.519,-1.275C4.463,-1.915 7.125,-0.745 7.126,-0.724C7.165,-0.725 4.677,2.263 1.519,2.785C-1.605,3.31 -3.821,1.394 -3.822,1.417C-3.793,1.413 -1.401,-0.633 1.519,-1.275" style="fill:white;fill-rule:nonzero;"/>
        </g>
        <g transform="matrix(7.44192,-3.91389,-3.59239,-8.10792,1054.32,719.738)">
            <path d="M-1.053,-0.263C-4.338,-1.271 -6.728,0.497 -6.723,0.475C-6.691,0.478 -4.092,3.056 -1.053,4.172C2.012,5.283 4.722,4.357 4.728,4.336C4.767,4.342 2.266,0.745 -1.053,-0.263" style="fill:white;fill-rule:nonzero;"/>
        </g>
        <g transform="matrix(5.35611,6.85599,6.29282,-5.83545,988.626,621.603)">
            <path d="M1.306,-0.941C4.223,-1.605 6.859,-0.452 6.86,-0.432C6.898,-0.436 4.441,2.574 1.306,3.126C-1.795,3.68 -3.996,1.783 -3.997,1.804C-3.965,1.802 -1.586,-0.273 1.306,-0.941" style="fill:white;fill-rule:nonzero;"/>
        </g>
        <g transform="matrix(6.72908,-5.22582,-4.79656,-7.33129,1071.51,634.991)">
            <path d="M-1.551,-0.439C-4.837,-1.468 -7.227,0.265 -7.222,0.242C-7.191,0.246 -4.593,2.821 -1.551,3.961C1.518,5.096 4.23,4.208 4.236,4.187C4.275,4.192 1.769,0.588 -1.551,-0.439" style="fill:white;fill-rule:nonzero;"/>
        </g>
        <g transform="matrix(6.40155,5.69334,5.22567,-6.97445,988.711,559.98)">
            <path d="M1.022,-0.456C3.918,-1.153 6.531,-0.022 6.534,-0.001C6.572,-0.005 4.143,3.039 1.022,3.627C-2.066,4.217 -4.26,2.337 -4.26,2.359C-4.228,2.356 -1.848,0.245 1.022,-0.456" style="fill:white;fill-rule:nonzero;"/>
        </g>
        <g transform="matrix(5.82246,-6.38878,-5.86399,-6.34353,1074.15,550.474)">
            <path d="M-1.789,-0.449C-5.083,-1.507 -7.481,0.194 -7.476,0.169C-7.445,0.172 -4.842,2.753 -1.789,3.928C1.288,5.1 4.007,4.255 4.013,4.233C4.052,4.238 1.542,0.604 -1.789,-0.449" style="fill:white;fill-rule:nonzero;"/>
        </g>
        <g transform="matrix(7.25544,4.3095,3.9555,-7.90476,979.703,496.245)">
            <path d="M0.905,-0.221C3.791,-0.963 6.392,0.141 6.394,0.161C6.434,0.156 4.03,3.251 0.905,3.889C-2.186,4.527 -4.385,2.666 -4.383,2.688C-4.351,2.685 -1.951,0.525 0.905,-0.221" style="fill:white;fill-rule:nonzero;"/>
        </g>
        <g transform="matrix(4.73989,-7.37491,-6.76911,-5.16408,1061.55,465.026)">
            <path d="M-2.01,-0.679C-5.319,-1.78 -7.729,-0.11 -7.725,-0.135C-7.694,-0.132 -5.076,2.467 -2.01,3.698C1.08,4.925 3.806,4.133 3.813,4.11C3.853,4.112 1.334,0.416 -2.01,-0.679" style="fill:white;fill-rule:nonzero;"/>
        </g>
        <g transform="matrix(7.88227,2.70345,2.48138,-8.58769,962.323,434.072)">
            <path d="M0.618,-0.087C3.506,-0.902 6.107,0.156 6.111,0.177C6.152,0.17 3.767,3.347 0.618,4.063C-2.497,4.779 -4.716,2.954 -4.712,2.976C-4.676,2.973 -2.24,0.731 0.618,-0.087" style="fill:white;fill-rule:nonzero;"/>
        </g>
        <g transform="matrix(3.51456,-8.14831,-7.47899,-3.82909,1033.84,382.696)">
            <path d="M-2.174,-0.987C-5.506,-2.159 -7.933,-0.524 -7.928,-0.55C-7.898,-0.548 -5.26,2.1 -2.174,3.422C0.937,4.739 3.679,4.02 3.685,3.996C3.726,3.997 1.193,0.178 -2.174,-0.987" style="fill:white;fill-rule:nonzero;"/>
        </g>
        <g transform="matrix(8.22261,0.895848,0.822261,-8.95848,935.588,374.137)">
            <path d="M0.207,-0.014C3.113,-0.945 5.727,0.045 5.733,0.065C5.776,0.056 3.404,3.363 0.207,4.207C-2.953,5.051 -5.205,3.279 -5.199,3.3C-5.161,3.295 -2.666,0.917 0.207,-0.014" style="fill:white;fill-rule:nonzero;"/>
        </g>
        <g transform="matrix(2.19819,-8.67879,-7.96589,-2.39491,989.577,304.259)">
            <path d="M-2.447,-1.592C-5.815,-2.888 -8.271,-1.302 -8.266,-1.33C-8.235,-1.33 -5.569,1.416 -2.447,2.886C0.699,4.35 3.473,3.74 3.479,3.714C3.52,3.711 0.958,-0.306 -2.447,-1.592" style="fill:white;fill-rule:nonzero;"/>
        </g>
        <g transform="matrix(8.20557,-1.06526,-0.977758,-8.93992,898.05,317.188)">
            <path d="M-0.251,-0.003C2.682,-1.108 5.317,-0.215 5.324,-0.195C5.37,-0.207 3.009,3.302 -0.251,4.349C-3.469,5.389 -5.765,3.69 -5.757,3.71C-5.715,3.702 -3.148,1.1 -0.251,-0.003" style="fill:white;fill-rule:nonzero;"/>
        </g>
        <g transform="matrix(0.848292,-8.9556,-8.21997,-0.924209,931.528,236.343)">
            <path d="M-2.518,-2.039C-5.95,-3.534 -8.452,-2.025 -8.448,-2.056C-8.418,-2.055 -5.707,0.854 -2.518,2.549C0.694,4.236 3.525,3.789 3.531,3.757C3.572,3.753 0.949,-0.559 -2.518,-2.039" style="fill:white;fill-rule:nonzero;"/>
        </g>
        <g transform="matrix(8.26362,0,0,9.00317,649.973,255.036)">
            <path d="M0,83.761L0.035,83.098C5.528,83.388 10.961,82.573 16.186,80.677C21.276,78.828 25.948,76.036 30.073,72.379C38.632,64.79 43.938,54.219 45.015,42.615C45.896,33.113 44.944,24.71 42.188,17.641C39.228,10.049 34.242,4.209 27.374,0.283L27.704,-0.294C34.708,3.711 39.789,9.663 42.807,17.4C45.602,24.566 46.566,33.071 45.676,42.677C44.584,54.45 39.199,65.175 30.513,72.876C26.326,76.589 21.582,79.424 16.412,81.3C11.104,83.228 5.582,84.055 0,83.761" style="fill:white;fill-rule:nonzero;"/>
        </g>
        <g transform="matrix(8.26362,0,0,9.00317,545.943,156.457)">
            <path d="M0,-17.378L2.822,-11.657L9.136,-10.74L4.568,-6.288L5.646,0L0,-2.969L-5.647,0L-4.569,-6.288L-9.137,-10.74L-2.824,-11.657L0,-17.378Z" style="fill:white;fill-rule:nonzero;"/>
        </g>
        <g transform="matrix(8.26362,0,0,9.00317,366.25,211.457)">
            <path d="M0,-12.838L2.085,-8.611L6.749,-7.935L3.374,-4.645L4.17,0L0,-2.193L-4.171,0L-3.374,-4.645L-6.749,-7.935L-2.086,-8.611L0,-12.838Z" style="fill:white;fill-rule:nonzero;"/>
        </g>
        <g transform="matrix(8.26362,0,0,9.00317,725.629,211.457)">
            <path d="M0,-12.838L2.086,-8.611L6.749,-7.935L3.374,-4.645L4.171,0L0,-2.193L-4.171,0L-3.375,-4.645L-6.749,-7.935L-2.086,-8.611L0,-12.838Z" style="fill:white;fill-rule:nonzero;"/>
        </g>
    </g>
</svg>
