<?xml version="1.0" encoding="UTF-8"?>
<!DOCTYPE svg PUBLIC "-//W3C//DTD SVG 1.1//EN" "http://www.w3.org/Graphics/SVG/1.1/DTD/svg11.dtd">
<!-- Creator: CorelDRAW X5 -->
<svg xmlns="http://www.w3.org/2000/svg" xml:space="preserve" width="125.483mm" height="130mm" style="shape-rendering:geometricPrecision; text-rendering:geometricPrecision; image-rendering:optimizeQuality; fill-rule:evenodd; clip-rule:evenodd"
viewBox="0 0 12548 13000"
 xmlns:xlink="http://www.w3.org/1999/xlink">
 <defs>
  <style type="text/css">
   <![CDATA[
    .fil1 {fill:#E61E25}
    .fil2 {fill:#333333;fill-rule:nonzero}
    .fil0 {fill:url(#id0)}
   ]]>
  </style>
  <linearGradient id="id0" gradientUnits="userSpaceOnUse" x1="1131.66" y1="4333.26" x2="12548.3" y2="4333.26">
   <stop offset="0" style="stop-color:#B42F32"/>
   <stop offset="1" style="stop-color:#E62A2E"/>
  </linearGradient>
 </defs>
 <g id="Layer_x0020_1">
  <metadata id="CorelCorpID_0Corel-Layer"/>
  <path class="fil0" d="M7283 4763c240,193 691,296 802,1009 111,711 -514,1842 -1449,2207 -644,252 -1011,188 -1598,151 -246,-141 -867,-238 -1129,-975 -140,-394 -251,-879 -82,-1299l86 -259c56,-313 31,96 121,-165 13,-39 -25,-19 52,-134l262 -281c140,-137 196,-121 243,-297 -167,-45 -58,-45 -225,-90l207 -242c48,-70 37,-20 63,-117 200,47 144,89 314,135 -194,-368 -70,-346 236,-663 222,-230 361,-326 663,-461 400,-179 871,-222 1391,-178 205,17 284,82 499,87l52 39c78,46 13,12 88,47 309,145 853,378 1166,406 864,77 468,-22 1257,1 219,6 209,42 402,46 -166,-218 -373,-193 -540,-315 431,-51 406,-10 466,-109 45,-75 110,-132 252,-126l129 25c7,0 20,-3 27,-3 7,-1 21,-5 28,-7 7,-2 21,-7 28,-8 244,-63 384,-271 664,-337 249,-58 504,-58 790,-465 -388,33 -1062,734 -2972,96 -145,-48 -267,-111 -399,-141 55,-116 82,-208 -10,-348 -92,-140 -354,-241 -525,-282 -118,-52 -293,-111 -443,-146 -140,-33 -348,-42 -506,-79 84,-55 360,-75 457,-85 162,-17 365,-7 532,-7 -97,-128 -216,-100 -443,-82l-405 3c-312,81 -384,126 -815,126 40,-112 117,-122 -38,-138 -987,-100 -1880,475 -2165,542 90,-122 1312,-785 1529,-898l1342 -771c100,-77 103,-33 141,-174l-514 160c-409,160 -1412,459 -1820,518 -451,65 18,-74 -632,127l-245 72c-252,99 -137,119 -282,166 -203,66 -4,-72 -186,2 -147,60 -53,76 -233,124 93,-142 213,-215 349,-327 193,-158 329,-193 370,-348 -222,5 -307,115 -458,216 -154,103 -279,183 -432,287 -162,110 -217,183 -407,267 -200,89 -283,151 -457,264 45,-173 179,-283 270,-449 -206,56 -49,92 -364,308 -164,112 -116,107 -180,224 -120,220 -266,196 -539,543 -169,215 -441,296 -534,447l-37 127c-2,6 -6,19 -9,25 -85,173 -334,217 -357,481 198,5 315,47 582,46 1546,-4 1626,-771 3285,-632 234,20 417,49 626,48l0 89c-561,12 -1696,598 -2056,866 -559,417 -1041,979 -1267,1701 -413,1320 256,2328 1315,2858 249,125 772,363 1096,373 193,81 1964,51 2013,36 144,-45 34,10 -10,-32 -95,-90 -90,62 -56,-49 110,-26 378,-50 452,-109 4,-3 12,-13 15,-16l27 -54c331,0 706,-66 924,-199 224,-137 249,-80 543,-177 314,-104 1129,-375 1274,-565 -285,68 -782,315 -1304,315 9,-7 25,-25 30,-17 5,9 23,-13 30,-16 299,-159 135,-95 287,-209 40,-30 108,-56 149,-76 -3,-137 -21,-162 -45,-270 162,-109 141,-63 178,-223l16 -78c45,-242 122,-303 360,-585l665 -762c-22,-196 1434,-722 1480,-1271 -121,92 -96,163 -356,361 -415,316 -582,317 -1127,313 -316,-3 -427,46 -720,46 134,-190 117,6 180,-225 -222,53 -291,92 -583,93 -677,2 -748,-442 -1588,-498 -773,-13 -1683,-169 -2522,384 -1287,848 -798,2008 110,2044 254,10 446,-69 569,-196 471,-489 -101,-922 -149,-990 -502,-711 421,-1035 1399,-860 142,25 210,54 332,65z"/>
  <path class="fil1" d="M1255 11586c268,0 427,-33 627,-144 154,-86 193,-121 280,-244l80 -105 37 431 209 1 0 -1417 -1171 0 0 246 924 0c-24,1081 -1194,1220 -1655,669 -494,-589 -365,-1822 467,-2012 584,-133 1087,242 1096,634l308 0c-81,-975 -1462,-1208 -2088,-548 -671,708 -453,2489 887,2489zm1633 -1417l277 0c0,-591 895,-609 996,-162 151,669 -1366,22 -1366,993 0,408 325,585 739,585 339,0 489,-158 647,-339 71,304 82,277 462,277l0 -246c-174,41 -214,-22 -218,-244 -10,-622 116,-1184 -208,-1425 -290,-216 -1330,-273 -1330,560zm185 832c0,397 728,470 988,94 109,-158 121,-343 121,-618 -332,176 -1109,30 -1109,524zm6962 -832l277 0c0,-661 986,-535 986,-154l0 154c0,384 -1355,-64 -1355,832 0,680 908,713 1255,392 85,-79 46,-83 132,-146 27,319 195,277 462,277l0 -246c-121,28 -64,28 -185,0 -164,-705 209,-1446 -317,-1716 -316,-163 -1254,-185 -1254,607zm185 770c0,540 741,476 969,168 146,-197 109,-290 109,-599l-634 105c-183,36 -444,134 -444,326zm-4282 -493l0 246c0,1198 1756,1138 1756,154 -459,0 -139,23 -422,317 -305,317 -879,222 -1031,-281 -30,-99 -12,-191 -56,-283l1540 0c0,-585 -199,-1061 -822,-1119 -563,-53 -965,365 -965,965zm277 -62l1232 0c-29,-347 -245,-678 -616,-678 -345,0 -616,333 -616,678zm2064 -616l0 -246 -277 0 0 2002 277 0 0 -1171c0,-797 1078,-874 1078,-154l0 1325 277 0 0 -1355c0,-680 -589,-776 -991,-652 -219,68 -215,152 -365,252zm-3142 154l0 -400 -246 0 0 2002 277 0 0 -1109c0,-380 300,-647 739,-647l0 -277c-286,0 -471,67 -640,253l-130 178z"/>
  <path class="fil2" d="M432 12576l91 13c-10,63 -36,112 -77,147 -41,36 -92,53 -152,53 -75,0 -135,-25 -181,-74 -46,-49 -69,-119 -69,-211 0,-59 10,-111 29,-156 20,-44 49,-78 90,-100 40,-22 84,-33 131,-33 60,0 108,15 146,45 38,30 62,73 73,129l-90 14c-9,-37 -24,-65 -46,-83 -22,-19 -48,-28 -79,-28 -47,0 -85,17 -115,50 -29,34 -44,87 -44,160 0,74 14,127 42,161 28,33 65,50 111,50 37,0 67,-11 92,-34 25,-22 40,-57 47,-103zm136 -74c0,-102 28,-177 85,-226 47,-41 105,-61 173,-61 75,0 137,25 185,74 48,49 72,118 72,205 0,71 -11,126 -32,167 -21,40 -52,72 -93,94 -40,22 -85,34 -133,34 -77,0 -139,-25 -187,-74 -48,-49 -71,-120 -71,-213zm95 0c0,70 15,123 46,158 31,35 70,52 116,52 46,0 85,-17 116,-53 31,-35 46,-89 46,-161 0,-68 -16,-119 -46,-154 -31,-35 -69,-52 -115,-52 -47,0 -85,17 -116,52 -31,35 -46,87 -46,157zm529 275l0 -550 84 0 0 78c40,-60 99,-90 175,-90 33,0 64,6 91,18 28,12 49,28 62,47 14,19 24,42 29,69 3,17 5,48 5,91l0 338 -93 0 0 -334c0,-38 -4,-66 -11,-85 -7,-19 -20,-34 -39,-45 -18,-11 -40,-17 -65,-17 -40,0 -74,13 -102,38 -29,25 -43,73 -43,143l0 300 -93 0zm589 0l0 -550 84 0 0 78c40,-60 99,-90 175,-90 33,0 64,6 91,18 28,12 49,28 62,47 14,19 23,42 29,69 3,17 5,48 5,91l0 338 -93 0 0 -334c0,-38 -4,-66 -11,-85 -7,-19 -20,-34 -39,-45 -18,-11 -40,-17 -65,-17 -40,0 -74,13 -102,38 -29,25 -43,73 -43,143l0 300 -93 0zm965 -178l96 13c-15,56 -43,100 -84,131 -41,31 -93,46 -157,46 -80,0 -144,-25 -191,-74 -47,-49 -70,-119 -70,-208 0,-92 24,-164 71,-215 48,-51 109,-76 185,-76 73,0 133,25 180,75 46,50 70,120 70,211 0,5 0,14 -1,25l-410 0c4,60 20,107 51,138 31,32 69,48 115,48 34,0 63,-9 87,-27 24,-18 43,-47 57,-86zm-305 -149l306 0c-4,-46 -16,-81 -35,-104 -29,-36 -68,-54 -115,-54 -43,0 -79,14 -108,43 -29,29 -45,67 -48,115zm879 126l91 13c-10,63 -36,112 -77,147 -41,36 -92,53 -152,53 -75,0 -135,-25 -181,-74 -46,-49 -69,-119 -69,-211 0,-59 10,-111 29,-156 20,-44 49,-78 90,-100 40,-22 84,-33 131,-33 60,0 108,15 146,45 38,30 62,73 73,129l-90 14c-9,-37 -24,-65 -46,-83 -22,-19 -48,-28 -79,-28 -47,0 -85,17 -115,50 -29,34 -44,87 -44,160 0,74 14,127 42,161 28,33 65,50 111,50 37,0 67,-11 92,-34 25,-22 40,-57 47,-103zm373 118l13 82c-26,5 -50,8 -70,8 -34,0 -60,-5 -79,-16 -19,-11 -32,-25 -39,-42 -8,-17 -11,-54 -11,-110l0 -317 -69 0 0 -72 69 0 0 -136 93 -56 0 192 93 0 0 72 -93 0 0 322c0,27 2,44 5,51 3,8 8,14 16,18 7,4 18,7 32,7 10,0 24,-1 41,-4zm92 -570l0 -106 93 0 0 106 -93 0zm0 653l0 -550 93 0 0 550 -93 0zm235 0l0 -550 84 0 0 78c40,-60 99,-90 175,-90 33,0 64,6 91,18 28,12 49,28 62,47 14,19 24,42 29,69 3,17 5,48 5,91l0 338 -93 0 0 -334c0,-38 -4,-66 -11,-85 -7,-19 -20,-34 -39,-45 -18,-11 -40,-17 -65,-17 -40,0 -74,13 -102,38 -29,25 -43,73 -43,143l0 300 -93 0zm572 46l90 13c4,28 14,48 32,61 23,17 55,26 95,26 43,0 76,-9 100,-26 24,-17 39,-41 48,-72 5,-19 7,-59 7,-119 -41,48 -92,72 -152,72 -76,0 -134,-27 -176,-82 -42,-54 -62,-120 -62,-196 0,-52 10,-101 28,-145 19,-44 46,-78 82,-103 36,-24 78,-36 127,-36 65,0 118,27 160,79l0 -68 86 0 0 475c0,86 -9,146 -26,182 -17,36 -45,64 -83,85 -38,21 -84,31 -139,31 -66,0 -118,-15 -159,-44 -40,-29 -60,-74 -58,-133zm76 -330c0,72 14,124 43,157 29,33 65,50 108,50 43,0 79,-16 108,-49 29,-33 43,-84 43,-155 0,-67 -15,-118 -45,-152 -30,-34 -66,-51 -108,-51 -42,0 -77,17 -106,50 -29,34 -43,83 -43,150zm924 284l-166 -550 98 0 88 317 31 118c1,-6 11,-44 28,-113l87 -322 96 0 83 319 27 105 32 -106 95 -318 91 0 -173 550 -96 0 -87 -329 -22 -94 -111 423 -99 0zm631 -275c0,-102 28,-177 85,-226 47,-41 105,-61 173,-61 75,0 137,25 185,74 48,49 72,118 72,205 0,71 -11,126 -32,167 -21,40 -52,72 -93,94 -40,22 -85,34 -133,34 -77,0 -139,-25 -187,-74 -48,-49 -71,-120 -71,-213zm95 0c0,70 15,123 46,158 31,35 70,52 116,52 46,0 85,-17 116,-53 31,-35 46,-89 46,-161 0,-68 -16,-119 -46,-154 -31,-35 -69,-52 -115,-52 -47,0 -85,17 -116,52 -31,35 -46,87 -46,157zm528 275l0 -550 84 0 0 84c21,-39 41,-65 59,-77 18,-13 38,-19 60,-19 31,0 63,10 96,30l-33 86c-23,-13 -45,-19 -68,-19 -20,0 -39,6 -55,18 -16,12 -28,29 -34,51 -10,33 -16,69 -16,109l0 287 -93 0zm352 0l0 -759 93 0 0 759 -93 0zm593 0l0 -70c-35,54 -86,81 -154,81 -44,0 -84,-12 -121,-36 -37,-24 -65,-58 -85,-101 -20,-43 -30,-93 -30,-149 0,-55 9,-104 27,-149 18,-45 46,-79 82,-102 36,-24 77,-36 122,-36 33,0 63,7 89,21 26,14 47,32 63,55l0 -273 93 0 0 759 -87 0zm-295 -274c0,70 15,123 45,158 30,35 65,52 105,52 41,0 75,-17 104,-50 28,-33 43,-84 43,-152 0,-75 -14,-130 -44,-165 -29,-35 -65,-53 -107,-53 -42,0 -76,17 -104,51 -28,34 -42,87 -42,159zm806 320l90 13c4,28 14,48 32,61 23,17 55,26 95,26 43,0 76,-9 100,-26 23,-17 39,-41 48,-72 5,-19 7,-59 7,-119 -41,48 -92,72 -152,72 -76,0 -134,-27 -176,-82 -42,-54 -62,-120 -62,-196 0,-52 10,-101 28,-145 19,-44 46,-78 82,-103 36,-24 78,-36 127,-36 65,0 118,27 160,79l0 -68 86 0 0 475c0,86 -9,146 -26,182 -17,36 -45,64 -83,85 -38,21 -84,31 -139,31 -66,0 -118,-15 -159,-44 -40,-29 -60,-74 -58,-133zm76 -330c0,72 14,124 43,157 29,33 65,50 108,50 43,0 79,-16 108,-49 29,-33 43,-84 43,-155 0,-67 -15,-118 -45,-152 -30,-34 -66,-51 -108,-51 -42,0 -77,17 -106,50 -29,34 -43,83 -43,150zm890 215c-35,30 -68,50 -100,62 -32,12 -66,18 -103,18 -60,0 -107,-15 -139,-44 -33,-29 -49,-67 -49,-113 0,-27 6,-51 18,-74 12,-22 28,-40 48,-53 20,-13 42,-24 67,-31 18,-5 46,-9 83,-14 75,-9 131,-20 166,-32 0,-13 1,-21 1,-24 0,-38 -9,-64 -27,-80 -24,-21 -59,-31 -106,-31 -44,0 -76,8 -97,23 -21,15 -36,43 -46,82l-91 -13c8,-39 22,-71 41,-95 19,-24 47,-42 83,-55 36,-13 78,-19 125,-19 47,0 85,5 115,17 29,11 51,25 65,42 14,17 23,38 29,64 3,16 5,45 5,86l0 124c0,86 2,141 6,164 4,23 11,45 23,66l-98 0c-9,-20 -15,-43 -18,-69zm-7 -207c-34,14 -85,25 -153,35 -39,5 -66,12 -82,19 -16,7 -28,17 -37,30 -9,13 -13,28 -13,44 0,25 9,45 28,62 19,16 46,25 83,25 36,0 68,-8 96,-23 28,-16 49,-37 62,-64 10,-21 15,-52 15,-93l1 -34zm238 276l0 -550 84 0 0 78c17,-27 40,-49 69,-65 29,-16 61,-25 98,-25 41,0 74,8 100,25 26,17 44,40 55,71 44,-64 101,-96 170,-96 55,0 97,15 126,45 29,30 44,77 44,139l0 377 -93 0 0 -346c0,-37 -3,-64 -9,-80 -6,-16 -17,-30 -33,-40 -16,-10 -35,-15 -56,-15 -39,0 -71,13 -97,39 -26,26 -38,67 -38,123l0 319 -93 0 0 -357c0,-41 -8,-72 -23,-93 -15,-21 -40,-31 -75,-31 -26,0 -50,7 -73,21 -22,14 -38,34 -48,61 -10,27 -15,65 -15,115l0 285 -93 0zm1258 -178l96 13c-15,56 -43,100 -84,131 -41,31 -93,46 -157,46 -80,0 -144,-25 -191,-74 -47,-49 -70,-119 -70,-208 0,-92 24,-164 71,-215 48,-51 109,-76 185,-76 73,0 133,25 180,75 46,50 70,120 70,211 0,5 0,14 -1,25l-410 0c4,60 20,107 51,138 31,32 69,48 115,48 34,0 63,-9 87,-27 24,-18 43,-47 57,-86zm-305 -149l306 0c-4,-46 -16,-81 -35,-104 -30,-36 -68,-54 -115,-54 -43,0 -79,14 -108,43 -29,29 -45,67 -48,115zm518 327l0 -550 84 0 0 84c21,-39 41,-65 59,-77 18,-13 38,-19 60,-19 31,0 63,10 96,30l-33 86c-23,-13 -45,-19 -68,-19 -20,0 -39,6 -55,18 -16,12 -28,29 -34,51 -10,33 -16,69 -16,109l0 287 -93 0zm317 -164l92 -15c5,37 20,65 43,85 24,20 57,29 99,29 43,0 75,-9 96,-26 21,-17 31,-38 31,-61 0,-21 -9,-38 -28,-50 -13,-8 -45,-19 -95,-32 -68,-17 -115,-32 -142,-45 -26,-13 -46,-30 -60,-52 -14,-22 -21,-47 -21,-73 0,-25 6,-47 17,-68 11,-21 26,-38 46,-52 14,-11 34,-20 59,-27 25,-7 52,-11 80,-11 43,0 81,6 113,19 33,12 57,29 72,51 15,21 26,50 32,85l-91 13c-4,-29 -16,-51 -36,-67 -20,-16 -48,-24 -84,-24 -43,0 -73,7 -91,21 -18,14 -27,31 -27,50 0,12 4,23 11,33 8,10 19,18 36,25 9,4 37,11 82,24 66,17 112,32 138,43 26,11 47,28 61,49 15,21 22,48 22,80 0,31 -9,60 -27,87 -18,27 -44,49 -78,64 -34,15 -73,22 -116,22 -71,0 -126,-15 -163,-44 -37,-30 -61,-73 -72,-132z"/>
 </g>
</svg>
