<?xml version="1.0" encoding="UTF-8"?>
<!DOCTYPE svg PUBLIC "-//W3C//DTD SVG 1.1//EN" "http://www.w3.org/Graphics/SVG/1.1/DTD/svg11.dtd">
<!-- Creator: CorelDRAW X5 -->
<svg xmlns="http://www.w3.org/2000/svg" xml:space="preserve" width="210mm" height="112.364mm" style="shape-rendering:geometricPrecision; text-rendering:geometricPrecision; image-rendering:optimizeQuality; fill-rule:evenodd; clip-rule:evenodd"
viewBox="0 0 21000 11236"
 xmlns:xlink="http://www.w3.org/1999/xlink">
 <defs>
  <style type="text/css">
   <![CDATA[
    .fil2 {fill:#1D1819}
    .fil1 {fill:#E62129}
    .fil3 {fill:#FEFEFE}
    .fil0 {fill:#FFF000}
   ]]>
  </style>
 </defs>
 <g id="Layer_x0020_1">
  <metadata id="CorelCorpID_0Corel-Layer"/>
  <path class="fil0" d="M3228 8977c703,0 1172,-648 1278,-1286 -149,1342 499,1660 1151,1699 578,34 1128,-293 1252,-851l0 691c134,752 735,960 1187,960 435,0 1030,-215 1183,-958l0 -831c314,1426 2269,1141 2429,15l-2 -469c271,1217 2073,1356 2406,38l-2 369c28,1283 2319,1447 2380,-110l2 -356c256,1594 2557,1212 2553,-32l0 -5425c-163,-543 -669,-938 -1269,-938 -618,0 -1137,420 -1283,988l0 802c-148,-506 -617,-876 -1172,-876 -595,0 -1099,447 -1250,1013l0 0 0 -530c-113,-551 -600,-965 -1185,-965 -575,0 -1056,401 -1179,938l0 563c-98,-576 -599,-1014 -1204,-1014 -591,0 -1084,420 -1197,978l-2 -584c-108,-563 -604,-988 -1199,-988 -540,0 -998,350 -1159,836l0 -389c0,-672 -546,-1219 -1221,-1219 -664,0 -1229,550 -1221,1220l0 1443c-106,-639 -574,-1286 -1278,-1286 -613,0 -1128,524 -1272,1233l0 4001c70,730 659,1319 1272,1319z"/>
  <path class="fil1" d="M17706 5452c739,0 1339,599 1339,1339 0,739 -599,1339 -1339,1339 -527,0 -983,-305 -1201,-747 -218,443 -674,747 -1201,747 -527,0 -983,-305 -1201,-747 -218,443 -674,747 -1201,747 -527,0 -983,-305 -1201,-747 -218,443 -674,747 -1201,747 -527,0 -983,-305 -1201,-747 -218,443 -674,747 -1201,747 -527,0 -983,-305 -1201,-747 -218,443 -674,747 -1201,747 -527,0 -983,-305 -1201,-747 -218,443 -674,747 -1201,747 -739,0 -1339,-599 -1339,-1339 0,-739 599,-1339 1339,-1339 527,0 983,305 1201,747 218,-443 674,-747 1201,-747 527,0 983,305 1201,747 218,-443 674,-747 1201,-747 527,0 983,305 1201,747 218,-443 674,-747 1201,-747 527,0 983,305 1201,747 218,-443 674,-747 1201,-747 527,0 983,305 1201,747 218,-443 674,-747 1201,-747 527,0 983,305 1201,747 218,-443 674,-747 1201,-747z"/>
  <path class="fil2" d="M10392 3660c369,0 669,299 669,669 0,369 -299,669 -669,669 -369,0 -669,-299 -669,-669 0,-369 299,-669 669,-669zm-7343 1334l42 3 246 0 44 -2 0 -1395 -55 -1 -224 -1 -53 3 0 1392zm14378 -1339l-176 0 0 295 173 1c25,227 -30,541 22,754 67,256 268,302 506,291l0 -296c-148,4 -209,-78 -208,-198l2 -551 194 2 -7 -298 -189 -4 -1 -568 -316 5 0 567zm-5038 863l-173 221c41,66 220,159 295,188 790,310 1099,-492 544,-726 -117,-49 -262,-71 -371,-121 -184,-84 -35,-319 302,-162 75,35 89,49 154,94l144 -245c-208,-130 -470,-262 -739,-154 -270,109 -330,455 -151,630 175,171 611,168 643,329 38,187 -368,181 -648,-54zm-6415 -282l14 759 326 2 -1 -725c-10,-278 -144,-436 -313,-550 -199,-134 -462,-164 -695,-53 -177,85 -348,276 -397,504l-3 825 318 -1 5 -527c0,-195 -12,-311 108,-428 260,-253 622,-48 638,193zm9605 628l0 134 286 0 1 -664c-1,-242 -60,-356 -177,-500 -320,-393 -1092,-269 -1197,349 -61,359 177,714 541,789 291,61 426,-22 545,-109zm-405 -945c209,0 378,169 378,378 0,209 -169,378 -378,378 -209,0 -378,-169 -378,-378 0,-209 169,-378 378,-378zm-6793 -197c-81,-56 -135,-77 -264,-98 -307,-51 -583,95 -732,367 -179,327 -36,811 378,963 438,161 830,-134 911,-488 37,-164 19,-1220 19,-1469l-311 1 0 724zm-379 203c209,0 378,169 378,378 0,209 -169,378 -378,378 -209,0 -378,-169 -378,-378 0,-209 169,-378 378,-378zm2391 27c209,0 378,169 378,378 0,209 -169,378 -378,378 -209,0 -378,-169 -378,-378 0,-209 169,-378 378,-378z"/>
  <path class="fil3" d="M3309 6077c394,0 713,319 713,713 0,394 -319,713 -713,713 -394,0 -713,-319 -713,-713 0,-394 319,-713 713,-713zm14382 0c394,0 713,319 713,713 0,394 -319,713 -713,713 -394,0 -713,-319 -713,-713 0,-394 319,-713 713,-713zm0 310c223,0 403,181 403,403 0,223 -181,403 -403,403 -223,0 -403,-181 -403,-403 0,-223 181,-403 403,-403zm-2396 -310c394,0 713,319 713,713 0,394 -319,713 -713,713 -394,0 -713,-319 -713,-713 0,-394 319,-713 713,-713zm0 310c223,0 403,181 403,403 0,223 -181,403 -403,403 -223,0 -403,-181 -403,-403 0,-223 181,-403 403,-403zm-2005 -882c115,36 223,86 322,149 4,410 11,1162 -21,1300 -83,364 -487,668 -938,502 -427,-157 -574,-655 -389,-992 153,-280 438,-430 754,-378 133,22 188,48 272,101l0 -683zm-391 892c215,0 390,175 390,390 0,215 -175,390 -390,390 -215,0 -390,-175 -390,-390 0,-215 175,-390 390,-390zm-2732 179c81,-282 601,-284 678,-1l-678 1zm1040 364l-321 1c-85,176 -238,285 -441,255 -203,-43 -312,-175 -344,-380l1124 -2c24,-390 -295,-695 -639,-732 -403,-43 -731,262 -777,609 -55,414 236,743 584,801 287,48 562,-85 713,-305 37,-54 98,-172 100,-249zm-2715 -209l1 34 342 0c-11,-280 -146,-440 -317,-555 -202,-135 -468,-167 -704,-53 -180,86 -353,280 -402,511l-3 836 323 -1 5 -534c0,-197 -12,-315 109,-434 264,-256 630,-49 647,196zm-2788 -653c394,0 713,319 713,713 0,394 -319,713 -713,713 -394,0 -713,-319 -713,-713 0,-394 319,-713 713,-713zm0 310c223,0 403,181 403,403 0,223 -181,403 -403,403 -223,0 -403,-181 -403,-403 0,-223 181,-403 403,-403zm-2396 0c223,0 403,181 403,403 0,223 -181,403 -403,403 -223,0 -403,-181 -403,-403 0,-223 181,-403 403,-403z"/>
 </g>
</svg>
