<?xml version="1.0" encoding="UTF-8"?>
<!DOCTYPE svg PUBLIC "-//W3C//DTD SVG 1.1//EN" "http://www.w3.org/Graphics/SVG/1.1/DTD/svg11.dtd">
<!-- Creator: CorelDRAW X5 -->
<svg xmlns="http://www.w3.org/2000/svg" xml:space="preserve" width="210mm" height="57.803mm" style="shape-rendering:geometricPrecision; text-rendering:geometricPrecision; image-rendering:optimizeQuality; fill-rule:evenodd; clip-rule:evenodd"
viewBox="0 0 21000 5780"
 xmlns:xlink="http://www.w3.org/1999/xlink">
 <defs>
  <style type="text/css">
   <![CDATA[
    .fil3 {fill:#FEFEFE}
    .fil0 {fill:#343DD1}
    .fil2 {fill:url(#id0)}
    .fil1 {fill:url(#id1)}
   ]]>
  </style>
  <linearGradient id="id0" gradientUnits="userSpaceOnUse" x1="3160.68" y1="4457.13" x2="3160.68" y2="2661.94">
   <stop offset="0" style="stop-color:#FDB64E"/>
   <stop offset="1" style="stop-color:#FAE005"/>
  </linearGradient>
  <radialGradient id="id1" gradientUnits="userSpaceOnUse" cx="3083.9" cy="5411.39" r="2417.63" fx="3083.9" fy="5411.39">
   <stop offset="0" style="stop-color:#C732C2"/>
   <stop offset="0.670588" style="stop-color:#7D38CA"/>
   <stop offset="1" style="stop-color:#343DD1"/>
  </radialGradient>
 </defs>
 <g id="Layer_x0020_1">
  <metadata id="CorelCorpID_0Corel-Layer"/>
  <path class="fil0" d="M17527 2512c42,99 10,1485 16,1793 10,461 573,422 598,46 32,-486 -49,-1367 7,-1837l589 -3c128,234 601,1374 747,1708 63,144 112,333 223,387 194,95 316,-39 376,-181l749 -1731c36,-79 166,-362 168,-440 5,-175 -145,-320 -313,-308 -260,18 -328,372 -489,748 -62,145 -118,286 -179,428 -49,114 -148,369 -185,429l-462 -1067c-264,-641 -247,-542 -1010,-542 -251,0 -1409,-27 -1523,25 -206,94 -216,347 -51,485 133,111 551,56 740,60z"/>
  <path class="fil0" d="M7784 3010c63,34 22,4 70,56 19,20 40,53 59,78l1097 1268c87,94 149,205 334,211 386,11 355,-358 355,-701 0,-346 0,-691 0,-1037 0,-295 75,-795 -142,-911 -148,-80 -305,-23 -382,66 -97,112 -75,297 -74,462 0,308 -28,782 7,1069l-870 -977c-211,-212 -465,-630 -676,-657 -457,-58 -375,507 -375,678 0,346 0,691 0,1037 0,289 -76,796 131,923 130,79 290,49 380,-45 109,-114 88,-267 87,-449 -1,-356 1,-713 0,-1069z"/>
  <path class="fil0" d="M11374 2991c210,123 299,252 651,250 305,-1 471,-142 649,-271 5,286 2,575 2,861 0,277 -57,598 127,733 218,161 479,-4 490,-259 18,-413 0,-1251 0,-1715 0,-305 22,-543 -227,-635 -210,-77 -334,26 -439,154l-295 359c-380,373 -639,-34 -795,-223 -110,-133 -246,-388 -537,-298 -244,75 -249,317 -249,598l0 1736c9,247 214,435 469,300 204,-108 151,-438 151,-705 0,-294 -3,-591 2,-885z"/>
  <path class="fil0" d="M15638 3425c-78,423 -468,710 -909,634 -1000,-172 -780,-1753 290,-1553 349,65 710,426 619,919zm-996 -1473c-665,117 -1237,727 -1107,1543 108,681 764,1249 1550,1119 668,-111 1245,-741 1106,-1566 -110,-652 -742,-1238 -1550,-1095z"/>
  <path class="fil0" d="M10130 2131c-251,78 -224,258 -224,550l-1 1556c0,236 136,448 399,374 234,-65 220,-289 220,-556l1 -1556c-2,-308 -193,-432 -395,-369z"/>
  <path class="fil0" d="M10127 1138c-467,127 -303,843 191,736 483,-104 312,-873 -191,-736z"/>
  <path class="fil1" d="M993 1059c-482,126 -762,435 -840,928 -204,990 -204,1937 0,2843 139,456 458,735 955,834 1306,154 2617,154 3930,0 556,-91 898,-410 1027,-955 154,-907 154,-1813 0,-2720 -103,-553 -433,-874 -988,-963 -530,-56 -953,-87 -1268,-93 183,-353 132,-664 -154,-933 -324,426 -783,735 -1378,928 -503,14 -932,58 -1285,132z"/>
  <path class="fil2" d="M2779 2713c-150,-51 -257,-5 -321,140 -102,474 -102,948 0,1422 70,139 178,182 324,129 402,-172 762,-409 1079,-711 106,-102 106,-203 0,-305 -319,-291 -680,-516 -1081,-675z"/>
  <path class="fil3" d="M3703 2636c-72,-68 -70,-133 7,-195 171,-131 257,-196 257,-196 58,-41 114,-37 166,11 42,53 36,101 -16,143 -126,93 -189,140 -189,140 120,95 180,143 180,143 39,43 43,90 14,140 -42,47 -90,54 -144,22 -182,-138 -273,-207 -273,-207z"/>
  <path class="fil3" d="M1936 2217c156,0 283,127 283,283 0,156 -127,283 -283,283 -156,0 -283,-127 -283,-283 0,-156 127,-283 283,-283z"/>
 </g>
</svg>
