<?xml version="1.0" encoding="UTF-8"?>
<!DOCTYPE svg PUBLIC "-//W3C//DTD SVG 1.1//EN" "http://www.w3.org/Graphics/SVG/1.1/DTD/svg11.dtd">
<!-- Creator: CorelDRAW X5 -->
<svg xmlns="http://www.w3.org/2000/svg" xml:space="preserve" width="106.411mm" height="130mm" style="shape-rendering:geometricPrecision; text-rendering:geometricPrecision; image-rendering:optimizeQuality; fill-rule:evenodd; clip-rule:evenodd"
viewBox="0 0 10641 13000"
 xmlns:xlink="http://www.w3.org/1999/xlink">
 <defs>
  <style type="text/css">
   <![CDATA[
    .fil2 {fill:#717472;fill-rule:nonzero}
    .fil0 {fill:#EB6C21;fill-rule:nonzero}
    .fil1 {fill:#FEFEFE;fill-rule:nonzero}
   ]]>
  </style>
 </defs>
 <g id="Layer_x0020_1">
  <metadata id="CorelCorpID_0Corel-Layer"/>
  <path class="fil0" d="M6626 9979l-2610 0c-1941,0 -3514,-1573 -3514,-3514l0 -2950c0,-1941 1573,-3514 3514,-3514l2610 0c1941,0 3514,1573 3514,3514l0 2950c0,1941 -1573,3514 -3514,3514z"/>
  <path class="fil1" d="M2292 3039c0,1301 0,2601 0,3902 314,0 628,0 942,0 0,-1022 0,-2044 0,-3066 630,3 1261,-6 1891,3 361,-17 668,326 663,692 11,790 1,1581 4,2371 314,0 628,0 942,0 0,-905 0,-1810 1,-2716 46,-640 -536,-1202 -1141,-1184 -1101,-8 -2202,0 -3302,-3z"/>
  <path class="fil1" d="M7407 3039c0,1301 0,2601 0,3902 314,0 628,0 942,0 0,-1301 0,-2601 0,-3902 -314,0 -628,0 -942,0z"/>
  <path class="fil1" d="M4042 4572c0,790 0,1580 0,2369 314,0 628,0 942,0 0,-790 0,-1580 0,-2369 -314,0 -628,0 -942,0z"/>
  <polygon class="fil2" points="691,12092 25,11219 472,11219 918,11821 1358,11219 1805,11219 1142,12063 1830,12970 1379,12970 915,12342 450,12970 0,12970 "/>
  <polygon class="fil2" points="2224,12978 2592,12978 2592,11227 2224,11227 "/>
  <polygon class="fil2" points="10272,12978 10641,12978 10641,11227 10272,11227 "/>
  <path class="fil2" d="M7466 11370c105,-110 268,-165 489,-165l46 0c231,0 399,75 507,224 103,-149 271,-224 504,-224l46 0c222,0 386,55 492,165 105,110 158,285 158,525l0 1083 -316 0 0 -1002c0,-157 -28,-267 -83,-330 -56,-64 -147,-95 -275,-95 -130,0 -223,34 -281,103 -58,69 -86,182 -86,341l0 984 -316 0 0 -984c0,-162 -29,-276 -86,-343 -58,-67 -152,-101 -284,-101 -127,0 -219,32 -275,95 -56,64 -83,174 -83,330l0 1002 -316 0 0 -1083c0,-240 54,-415 161,-525z"/>
  <path class="fil2" d="M5638 12537c67,78 192,117 373,117 182,0 306,-39 373,-117 67,-78 101,-224 101,-437 0,-213 -34,-358 -101,-437 -67,-76 -192,-114 -373,-114 -182,0 -306,39 -373,116 -67,77 -101,222 -101,435 0,213 34,359 101,437zm-454 -400l0 -70c0,-298 64,-517 192,-655 128,-138 329,-207 605,-207l61 0c276,0 477,69 605,207 128,138 192,357 192,655l0 70c0,299 -64,517 -192,655 -128,138 -329,207 -605,207l-61 0c-276,0 -477,-69 -605,-207 -128,-138 -192,-357 -192,-655z"/>
  <path class="fil2" d="M4343 12227l-449 0c-263,0 -379,72 -379,247 0,218 189,244 408,244 241,0 419,-35 419,-253l0 -238zm416 259c0,336 -234,514 -828,514 -564,0 -831,-155 -831,-512 0,-402 312,-535 798,-535l445 0 0 -167c0,-233 -178,-273 -464,-273 -234,0 -453,20 -575,55l0 -290c145,-37 338,-52 546,-52 557,0 909,124 909,549l0 710z"/>
 </g>
</svg>
